<?xml version="1.0" encoding="utf-8"?>
<!-- Generator: Adobe Illustrator 22.0.1, SVG Export Plug-In . SVG Version: 6.00 Build 0)  -->
<svg version="1.1" id="Слой_1" xmlns="http://www.w3.org/2000/svg" xmlns:xlink="http://www.w3.org/1999/xlink" x="0px" y="0px"
	 viewBox="0 0 405.5 311" style="enable-background:new 0 0 405.5 311;" xml:space="preserve">
<style type="text/css">
	.st0{display:none;fill-rule:evenodd;clip-rule:evenodd;fill:#F5F1EB;}
	.st1{fill:#152436;}
	.st2{fill:#A68352;}
	.st3{fill-rule:evenodd;clip-rule:evenodd;fill:#A68352;}
</style>
<g>
	<polygon class="st0" points="-218.5,-133 623.4,-133 623.4,462.3 -218.5,462.3 -218.5,-133 	"/>
	<path class="st1" d="M93.1,293.9c0.1,0,0.2,0.1,0.3,0.1c0.1,0,0.3,0.2,0.6,0.4c0.3,0.2,0.5,0.4,0.7,0.7c0.2,0.2,0.4,0.6,0.6,1
		c0.2,0.4,0.3,0.9,0.3,1.4c0,1.2-0.4,2.2-1.2,2.9c-0.8,0.8-1.9,1.2-3.2,1.2h-5.8v-14.4h5.5c1.2,0,2.1,0.4,2.9,1.1
		c0.8,0.7,1.1,1.6,1.1,2.6c0,0.4-0.1,0.8-0.2,1.2c-0.1,0.4-0.2,0.6-0.4,0.9c-0.2,0.2-0.3,0.4-0.5,0.5c-0.2,0.2-0.3,0.3-0.4,0.3
		L93.1,293.9L93.1,293.9z M86.8,300.2h4.3c0.9,0,1.6-0.2,2.1-0.8c0.5-0.5,0.8-1.1,0.8-1.9c0-0.8-0.3-1.5-0.8-2
		c-0.5-0.6-1.2-0.8-2.1-0.8h-4.3V300.2L86.8,300.2z M90.8,288.7h-4v4.6h4c0.8,0,1.4-0.2,1.8-0.6c0.4-0.4,0.7-1,0.7-1.7
		c0-0.7-0.2-1.2-0.7-1.6C92.1,288.9,91.5,288.7,90.8,288.7L90.8,288.7z M106.7,299.4c0.7-0.7,1.1-1.6,1.1-2.7c0-1.1-0.4-2-1.1-2.7
		c-0.7-0.7-1.5-1.1-2.5-1.1c-1,0-1.8,0.4-2.5,1.1c-0.7,0.7-1.1,1.6-1.1,2.7c0,1.1,0.4,1.9,1.1,2.7c0.7,0.7,1.5,1.1,2.5,1.1
		C105.2,300.5,106,300.1,106.7,299.4L106.7,299.4z M100.7,300.3c-1-1-1.5-2.2-1.5-3.6c0-1.4,0.5-2.7,1.5-3.6c1-1,2.2-1.5,3.6-1.5
		c1.4,0,2.6,0.5,3.6,1.5c1,1,1.5,2.2,1.5,3.6c0,1.4-0.5,2.7-1.5,3.6c-1,1-2.2,1.5-3.6,1.5C102.8,301.8,101.6,301.3,100.7,300.3
		L100.7,300.3z M120.5,301.6v-1.3c0,0-0.1,0.1-0.1,0.2c-0.1,0.1-0.2,0.2-0.4,0.4c-0.2,0.2-0.4,0.3-0.6,0.5c-0.2,0.1-0.5,0.3-0.9,0.4
		c-0.4,0.1-0.8,0.2-1.1,0.2c-1.1,0-2.1-0.4-2.9-1.2c-0.8-0.8-1.1-1.8-1.1-3.1v-5.7h1.4v5.7c0,0.9,0.3,1.6,0.8,2.1
		c0.5,0.6,1.2,0.8,2,0.8c0.8,0,1.5-0.3,2.1-0.9c0.6-0.6,0.9-1.4,0.9-2.4v-5.4h1.4v9.8H120.5L120.5,301.6z M127.8,290.7v-2.3h1.3v3.3
		h2.2v1.3h-2.2v5.8c0,1,0.4,1.5,1.3,1.5c0.2,0,0.4,0,0.7-0.1c0.2-0.1,0.4-0.1,0.5-0.1l0.2-0.1v1.3c-0.4,0.2-0.9,0.3-1.4,0.3
		c-0.8,0-1.5-0.2-2-0.7c-0.5-0.5-0.7-1.2-0.7-2.1v-5.8h-1.9v-1.3h1.1C127.5,291.8,127.8,291.4,127.8,290.7L127.8,290.7z
		 M135.8,301.6v-9.8h1.4v9.8H135.8L135.8,301.6z M135.9,289.1c-0.2-0.2-0.3-0.4-0.3-0.7c0-0.3,0.1-0.5,0.3-0.7
		c0.2-0.2,0.4-0.3,0.7-0.3s0.5,0.1,0.7,0.3c0.2,0.2,0.3,0.4,0.3,0.7c0,0.3-0.1,0.5-0.3,0.7c-0.2,0.2-0.4,0.3-0.7,0.3
		S136.1,289.3,135.9,289.1L135.9,289.1z M148.5,299.3c0.7-0.8,1.1-1.6,1.1-2.7c0-1-0.4-1.9-1.1-2.7c-0.7-0.8-1.5-1.1-2.4-1.1
		c-0.8,0-1.6,0.4-2.3,1.1c-0.7,0.7-1,1.6-1,2.7c0,1.1,0.3,1.9,1,2.7c0.7,0.7,1.4,1.1,2.3,1.1C147,300.5,147.8,300.1,148.5,299.3
		L148.5,299.3z M149.6,305.9v-5.8c0,0-0.1,0.1-0.1,0.2c-0.1,0.1-0.2,0.2-0.4,0.4c-0.2,0.2-0.5,0.4-0.7,0.5c-0.3,0.2-0.6,0.3-1,0.4
		c-0.4,0.1-0.8,0.2-1.2,0.2c-1.3,0-2.4-0.5-3.3-1.5c-0.9-1-1.4-2.2-1.4-3.6s0.5-2.6,1.4-3.6c0.9-1,2-1.5,3.3-1.5
		c0.4,0,0.8,0.1,1.2,0.2c0.4,0.1,0.7,0.3,1,0.4c0.3,0.2,0.5,0.3,0.7,0.5c0.2,0.2,0.3,0.3,0.4,0.4l0.1,0.2v-1.5h1.4v14.1H149.6
		L149.6,305.9z M163,301.6v-1.3c0,0-0.1,0.1-0.1,0.2c-0.1,0.1-0.2,0.2-0.4,0.4c-0.2,0.2-0.4,0.3-0.6,0.5c-0.2,0.1-0.5,0.3-0.9,0.4
		c-0.4,0.1-0.8,0.2-1.1,0.2c-1.1,0-2.1-0.4-2.9-1.2c-0.8-0.8-1.1-1.8-1.1-3.1v-5.7h1.4v5.7c0,0.9,0.3,1.6,0.8,2.1
		c0.5,0.6,1.2,0.8,2,0.8c0.8,0,1.5-0.3,2.1-0.9c0.6-0.6,0.9-1.4,0.9-2.4v-5.4h1.4v9.8H163L163,301.6z M178.1,297.2l-8,0
		c0.1,0.9,0.4,1.7,1.1,2.3c0.7,0.6,1.5,1,2.4,1c0.6,0,1.2-0.1,1.7-0.4c0.5-0.3,0.9-0.5,1.1-0.8l0.3-0.4l0.9,0.9
		c0,0.1-0.1,0.1-0.2,0.2c-0.1,0.1-0.2,0.3-0.5,0.5c-0.3,0.2-0.5,0.4-0.8,0.6c-0.3,0.2-0.7,0.3-1.2,0.5c-0.5,0.2-1,0.2-1.4,0.2
		c-1.3,0-2.5-0.5-3.5-1.5c-1-1-1.5-2.2-1.5-3.6s0.5-2.6,1.4-3.6c1-1,2.1-1.5,3.4-1.5c1.3,0,2.5,0.5,3.4,1.4c0.9,0.9,1.3,2.1,1.3,3.5
		L178.1,297.2L178.1,297.2z M175.7,293.8c-0.6-0.6-1.3-0.9-2.2-0.9c-0.9,0-1.6,0.3-2.3,0.9c-0.6,0.6-1,1.3-1.1,2.2h6.7
		C176.7,295.1,176.3,294.3,175.7,293.8L175.7,293.8z M193.1,301.6v-14.4h1.5v6.4h8v-6.4h1.5v14.4h-1.5V295h-8v6.6H193.1L193.1,301.6
		z M216.2,299.4c0.7-0.7,1.1-1.6,1.1-2.7c0-1.1-0.4-2-1.1-2.7c-0.7-0.7-1.5-1.1-2.5-1.1c-1,0-1.8,0.4-2.5,1.1
		c-0.7,0.7-1.1,1.6-1.1,2.7c0,1.1,0.4,1.9,1.1,2.7c0.7,0.7,1.5,1.1,2.5,1.1C214.7,300.5,215.5,300.1,216.2,299.4L216.2,299.4z
		 M210.1,300.3c-1-1-1.5-2.2-1.5-3.6c0-1.4,0.5-2.7,1.5-3.6c1-1,2.2-1.5,3.6-1.5c1.4,0,2.6,0.5,3.6,1.5c1,1,1.5,2.2,1.5,3.6
		c0,1.4-0.5,2.7-1.5,3.6c-1,1-2.2,1.5-3.6,1.5C212.3,301.8,211.1,301.3,210.1,300.3L210.1,300.3z M223.7,290.7v-2.3h1.3v3.3h2.2v1.3
		h-2.2v5.8c0,1,0.4,1.5,1.3,1.5c0.2,0,0.4,0,0.7-0.1c0.2-0.1,0.4-0.1,0.5-0.1l0.2-0.1v1.3c-0.4,0.2-0.9,0.3-1.4,0.3
		c-0.8,0-1.5-0.2-2-0.7c-0.5-0.5-0.7-1.2-0.7-2.1v-5.8h-1.9v-1.3h1.1C223.5,291.8,223.7,291.4,223.7,290.7L223.7,290.7z
		 M240.1,297.2l-8,0c0.1,0.9,0.4,1.7,1.1,2.3c0.7,0.6,1.5,1,2.4,1c0.6,0,1.2-0.1,1.7-0.4c0.5-0.3,0.9-0.5,1.1-0.8l0.3-0.4l0.9,0.9
		c0,0.1-0.1,0.1-0.2,0.2c-0.1,0.1-0.2,0.3-0.5,0.5c-0.3,0.2-0.5,0.4-0.8,0.6c-0.3,0.2-0.7,0.3-1.2,0.5c-0.5,0.2-1,0.2-1.4,0.2
		c-1.3,0-2.5-0.5-3.5-1.5c-1-1-1.5-2.2-1.5-3.6s0.5-2.6,1.4-3.6c1-1,2.1-1.5,3.4-1.5c1.3,0,2.5,0.5,3.4,1.4c0.9,0.9,1.3,2.1,1.3,3.5
		L240.1,297.2L240.1,297.2z M237.6,293.8c-0.6-0.6-1.3-0.9-2.2-0.9c-0.9,0-1.6,0.3-2.3,0.9c-0.6,0.6-1,1.3-1.1,2.2h6.7
		C238.6,295.1,238.3,294.3,237.6,293.8L237.6,293.8z M245.8,287.3v14.4h-1.4v-14.4H245.8L245.8,287.3z M267.9,290.1
		c0,0.4-0.1,0.8-0.3,1.2c-0.2,0.4-0.4,0.8-0.7,1.1c-0.3,0.3-0.5,0.6-0.8,0.9c-0.3,0.3-0.5,0.5-0.7,0.6l-0.3,0.2l3.3,4
		c0.1-0.1,0.2-0.2,0.3-0.4c0.1-0.2,0.2-0.6,0.4-1.2c0.2-0.6,0.3-1.2,0.3-1.9h1.3c0,0.5,0,1-0.1,1.5c-0.1,0.5-0.2,0.9-0.3,1.3
		c-0.1,0.4-0.3,0.7-0.4,1c-0.1,0.3-0.2,0.5-0.3,0.6l-0.1,0.2c0.1,0.1,0.1,0.2,0.2,0.3c0.1,0.1,0.3,0.3,0.6,0.5
		c0.3,0.2,0.6,0.3,0.8,0.3l0.6-0.1v1.3c-0.2,0.1-0.5,0.1-0.7,0.1c-0.3,0-0.5-0.1-0.8-0.2c-0.3-0.1-0.5-0.2-0.7-0.4
		c-0.2-0.2-0.3-0.3-0.5-0.5c-0.1-0.2-0.2-0.3-0.3-0.4l-0.1-0.2c0,0-0.1,0.1-0.2,0.2c-0.1,0.1-0.2,0.2-0.5,0.4
		c-0.2,0.2-0.5,0.4-0.8,0.5c-0.3,0.1-0.6,0.3-1.1,0.4c-0.4,0.1-0.9,0.2-1.3,0.2c-1.2,0-2.2-0.3-3-1c-0.8-0.7-1.2-1.5-1.2-2.5
		c0-0.5,0.1-1,0.3-1.4c0.2-0.5,0.4-0.9,0.7-1.2c0.3-0.3,0.5-0.6,0.8-0.9c0.3-0.3,0.5-0.4,0.7-0.6l0.3-0.2c-0.1-0.1-0.1-0.1-0.2-0.2
		c-0.1-0.1-0.3-0.3-0.5-0.6c-0.3-0.3-0.5-0.6-0.7-0.9c-0.2-0.3-0.4-0.6-0.5-1c-0.2-0.4-0.2-0.8-0.2-1.1c0-0.9,0.3-1.6,0.9-2.2
		c0.6-0.6,1.4-0.9,2.3-0.9c0.9,0,1.7,0.3,2.3,0.9C267.6,288.6,267.9,289.3,267.9,290.1L267.9,290.1z M267.7,299.2l-3.4-4.3
		c-0.1,0-0.1,0.1-0.2,0.2c-0.1,0.1-0.3,0.3-0.5,0.5c-0.3,0.3-0.5,0.5-0.7,0.8c-0.2,0.3-0.4,0.6-0.5,0.9c-0.2,0.4-0.2,0.7-0.2,1
		c0,0.7,0.2,1.2,0.7,1.6c0.5,0.4,1.2,0.6,2,0.6c0.5,0,1.1-0.1,1.5-0.3c0.5-0.2,0.8-0.4,1-0.6L267.7,299.2L267.7,299.2z M262.7,290.2
		c0,0.4,0.2,0.8,0.5,1.3c0.3,0.5,0.6,0.9,0.9,1.2l0.5,0.5c0.1,0,0.1-0.1,0.2-0.2c0.1-0.1,0.3-0.2,0.5-0.5c0.2-0.2,0.4-0.5,0.6-0.7
		c0.2-0.2,0.3-0.5,0.5-0.8c0.2-0.3,0.2-0.6,0.2-0.9c0-0.5-0.2-1-0.6-1.3c-0.4-0.4-0.8-0.5-1.4-0.5s-1,0.2-1.4,0.5
		C262.9,289.3,262.7,289.7,262.7,290.2L262.7,290.2z M292.8,297.7c0-0.5-0.1-0.9-0.4-1.3c-0.3-0.3-0.7-0.6-1.1-0.8
		c-0.5-0.2-1-0.4-1.5-0.5c-0.6-0.2-1.1-0.3-1.7-0.5c-0.6-0.2-1.1-0.4-1.5-0.7c-0.5-0.3-0.8-0.7-1.1-1.2c-0.3-0.5-0.4-1.1-0.4-1.8
		c0-1.1,0.4-2,1.3-2.8c0.8-0.8,2-1.1,3.3-1.1c0.5,0,1,0.1,1.5,0.2c0.5,0.1,0.9,0.3,1.2,0.5c0.3,0.2,0.6,0.4,0.8,0.5
		c0.2,0.2,0.4,0.3,0.5,0.5l0.2,0.2l-1,1c0,0-0.1-0.1-0.1-0.2c-0.1-0.1-0.2-0.2-0.4-0.3c-0.2-0.2-0.4-0.3-0.6-0.4
		c-0.2-0.1-0.5-0.2-0.9-0.3c-0.4-0.1-0.8-0.2-1.1-0.2c-0.9,0-1.7,0.2-2.2,0.7c-0.6,0.5-0.8,1.1-0.8,1.7c0,0.5,0.1,0.9,0.4,1.3
		c0.3,0.3,0.7,0.6,1.1,0.8c0.5,0.2,1,0.4,1.5,0.5c0.6,0.2,1.1,0.3,1.7,0.5c0.5,0.2,1.1,0.4,1.5,0.7c0.5,0.3,0.8,0.7,1.1,1.2
		c0.3,0.5,0.4,1.1,0.4,1.8c0,1.2-0.4,2.2-1.3,3c-0.9,0.8-2,1.1-3.5,1.1c-0.6,0-1.2-0.1-1.8-0.2c-0.6-0.2-1-0.3-1.4-0.5
		c-0.4-0.2-0.7-0.4-0.9-0.6c-0.3-0.2-0.5-0.4-0.6-0.5l-0.2-0.2l0.9-1c0,0,0.1,0.1,0.1,0.2c0.1,0.1,0.2,0.2,0.5,0.4
		c0.2,0.2,0.5,0.4,0.8,0.5c0.3,0.2,0.6,0.3,1.1,0.4c0.5,0.1,0.9,0.2,1.4,0.2c1.1,0,1.9-0.2,2.4-0.7
		C292.6,299.1,292.8,298.5,292.8,297.7L292.8,297.7z M301,294c-0.7,0.8-1.1,1.6-1.1,2.7c0,1,0.4,1.9,1.1,2.7
		c0.7,0.8,1.5,1.1,2.4,1.1c0.8,0,1.6-0.4,2.3-1.1c0.7-0.7,1-1.6,1-2.7c0-1.1-0.3-1.9-1-2.7c-0.7-0.7-1.4-1.1-2.3-1.1
		C302.5,292.9,301.7,293.3,301,294L301,294z M299.9,300.1v5.8h-1.4v-14.1h1.4v1.5c0,0,0.1-0.1,0.1-0.2c0.1-0.1,0.2-0.2,0.4-0.4
		c0.2-0.2,0.5-0.4,0.7-0.5c0.3-0.2,0.6-0.3,1-0.4c0.4-0.1,0.8-0.2,1.2-0.2c1.3,0,2.4,0.5,3.3,1.5c0.9,1,1.4,2.2,1.4,3.6
		s-0.5,2.6-1.4,3.6c-0.9,1-2,1.5-3.3,1.5c-0.4,0-0.8-0.1-1.2-0.2c-0.4-0.1-0.7-0.3-1-0.4c-0.3-0.2-0.5-0.3-0.7-0.5
		c-0.2-0.2-0.3-0.3-0.4-0.4L299.9,300.1L299.9,300.1z M314.4,296l3.8-0.6c0-0.7-0.2-1.3-0.7-1.8c-0.5-0.5-1-0.7-1.8-0.7
		c-0.5,0-1,0.1-1.5,0.4c-0.5,0.2-0.8,0.5-1,0.7l-0.3,0.3l-0.9-0.9c0-0.1,0.1-0.1,0.2-0.2c0.1-0.1,0.2-0.2,0.5-0.4
		c0.2-0.2,0.5-0.4,0.7-0.6c0.3-0.2,0.6-0.3,1-0.4c0.4-0.1,0.9-0.2,1.3-0.2c1.1,0,2,0.4,2.8,1.1c0.7,0.7,1.1,1.6,1.1,2.7v6.3h-1.4
		v-1.3c0,0-0.1,0.1-0.1,0.2c-0.1,0.1-0.2,0.2-0.4,0.4c-0.2,0.2-0.4,0.3-0.6,0.5c-0.2,0.1-0.5,0.3-0.9,0.4c-0.4,0.1-0.8,0.2-1.1,0.2
		c-1,0-1.8-0.3-2.5-0.9c-0.7-0.6-1-1.2-1-2c0-0.8,0.2-1.5,0.7-2C312.8,296.5,313.5,296.1,314.4,296L314.4,296z M315,300.5
		c0.9,0,1.7-0.3,2.3-0.9c0.6-0.6,0.9-1.4,0.9-2.4v-0.6l-3.4,0.6c-1.2,0.2-1.8,0.8-1.9,1.7c0,0.4,0.2,0.8,0.5,1.1
		C313.9,300.3,314.4,300.5,315,300.5L315,300.5z"/>
	<path class="st2" d="M29.6,105.4c-0.4,0-0.9-0.1-1.3-0.2c-0.4-0.1-0.7-0.2-0.9-0.4v-0.6c0.1,0.1,0.3,0.1,0.5,0.2
		c0.2,0.1,0.5,0.2,0.7,0.2c0.3,0.1,0.5,0.1,0.7,0.1c0.5,0,0.9-0.1,1.2-0.4c0.2-0.2,0.4-0.5,0.4-0.7c0-0.3-0.1-0.6-0.3-0.8
		c-0.2-0.2-0.5-0.4-0.8-0.6c-0.3-0.2-0.7-0.4-1-0.6c-0.3-0.2-0.6-0.4-0.8-0.7c-0.2-0.3-0.3-0.6-0.3-1c0-0.3,0.1-0.6,0.2-0.8
		c0.1-0.3,0.4-0.5,0.7-0.7c0.3-0.2,0.7-0.3,1.3-0.3c0.5,0,1,0,1.3,0.1c0.4,0.1,0.6,0.2,0.8,0.3l-0.2,1c-0.4-0.2-0.8-0.4-1.2-0.5
		c-0.4-0.1-0.7-0.2-0.9-0.2c-0.3,0-0.5,0.1-0.7,0.3c-0.2,0.2-0.2,0.4-0.2,0.6c0,0.3,0.1,0.5,0.4,0.8c0.2,0.2,0.5,0.4,0.9,0.6
		c0.3,0.2,0.7,0.4,1,0.6c0.3,0.2,0.6,0.4,0.9,0.7c0.2,0.3,0.4,0.6,0.4,1c0,0.5-0.2,1-0.7,1.4C31.1,105.2,30.4,105.4,29.6,105.4
		L29.6,105.4z M36.1,105.2v-6.9h1.3v6.9H36.1L36.1,105.2z M36.8,96.9c-0.2,0-0.4-0.1-0.6-0.2c-0.1-0.2-0.2-0.3-0.2-0.5
		c0-0.2,0.1-0.4,0.2-0.6c0.1-0.2,0.3-0.2,0.6-0.2c0.2,0,0.4,0.1,0.6,0.2c0.2,0.2,0.2,0.3,0.2,0.6c0,0.2-0.1,0.4-0.2,0.5
		C37.2,96.8,37,96.9,36.8,96.9L36.8,96.9z M42.1,105.2v-4.8c0-0.4,0-0.6-0.1-0.9c-0.1-0.2-0.2-0.4-0.3-0.5c-0.1-0.1-0.2-0.2-0.3-0.3
		l0.8-0.6l1.3,1.1c0.4-0.4,0.7-0.6,1.1-0.8c0.3-0.2,0.7-0.3,1.2-0.3c0.2,0,0.5,0.1,0.8,0.2c0.3,0.1,0.5,0.3,0.7,0.7
		c0.2,0.3,0.3,0.8,0.3,1.4v4.8H46v-4.6c0-0.5-0.1-0.8-0.3-1.1c-0.2-0.3-0.5-0.4-0.9-0.4c-0.4,0-0.9,0.3-1.5,0.9v5.3H42.1L42.1,105.2
		z M54.2,105.4c-0.6,0-1.1-0.1-1.6-0.4c-0.5-0.3-0.8-0.7-1.1-1.2c-0.3-0.5-0.4-1.1-0.4-1.9c0-0.8,0.1-1.5,0.4-2
		c0.3-0.6,0.7-1,1.2-1.3c0.5-0.3,1.1-0.5,1.7-0.5c0.3,0,0.7,0,1,0.1c0.4,0.1,0.6,0.2,0.8,0.3l-0.2,1c-0.5-0.3-0.9-0.4-1.3-0.5
		c-0.4-0.1-0.7-0.2-1-0.2c-0.4,0.2-0.7,0.5-0.9,0.8c-0.2,0.4-0.4,0.7-0.5,1.1c-0.1,0.4-0.1,0.7-0.1,1c0,0.5,0.1,1,0.3,1.4
		c0.2,0.4,0.5,0.7,0.9,1c0.4,0.2,0.7,0.4,1.2,0.4c0.4,0,0.7,0,0.9-0.1c0.3-0.1,0.5-0.2,0.7-0.3v0.5c-0.3,0.2-0.6,0.3-1,0.5
		C55.1,105.3,54.7,105.4,54.2,105.4L54.2,105.4z M63,105.4c-0.6,0-1.2-0.1-1.7-0.4c-0.5-0.3-0.9-0.7-1.2-1.2
		c-0.3-0.5-0.4-1.1-0.4-1.9c0-0.8,0.2-1.6,0.5-2.1c0.3-0.6,0.8-1,1.3-1.3c0.5-0.3,1.1-0.4,1.7-0.4c0.5,0,0.9,0.1,1.3,0.4
		c0.4,0.2,0.7,0.6,0.9,1.1c0.2,0.5,0.4,1.1,0.4,1.8h-4.9c0,0.8,0.1,1.4,0.4,1.9c0.2,0.5,0.6,0.8,1,1c0.4,0.2,0.8,0.3,1.3,0.3
		c0.4,0,0.7,0,1.1-0.1c0.3-0.1,0.6-0.2,0.8-0.3v0.5c-0.3,0.2-0.7,0.3-1.1,0.5C63.9,105.3,63.4,105.4,63,105.4L63,105.4z M60.9,101
		h3.6c0-0.5-0.1-0.8-0.3-1.1c-0.2-0.3-0.4-0.5-0.6-0.6c-0.2-0.1-0.5-0.2-0.7-0.3c-0.2-0.1-0.4-0.1-0.6-0.1c-0.3,0.2-0.6,0.4-0.9,0.8
		C61.2,100,61,100.4,60.9,101L60.9,101z M341,105.2v-0.7c0.5-0.3,0.9-0.6,1.5-1.1c0.5-0.4,1-0.9,1.4-1.4c0.4-0.5,0.8-1,1.1-1.5
		c0.3-0.5,0.4-1,0.4-1.5c0-0.4-0.1-0.7-0.3-1.1c-0.2-0.3-0.5-0.6-1-0.7c-0.3,0-0.7,0-1.2,0.1c-0.5,0.1-0.9,0.2-1.3,0.3l-0.3-1
		c0.2-0.1,0.4-0.1,0.6-0.1c0.3,0,0.5-0.1,0.8-0.1c0.3,0,0.5-0.1,0.7-0.1c0.8,0,1.5,0.1,1.9,0.4c0.5,0.3,0.8,0.6,1,1
		c0.2,0.4,0.3,0.8,0.3,1.2c0,0.3-0.1,0.7-0.3,1.1c-0.2,0.4-0.5,0.8-0.8,1.2c-0.3,0.4-0.7,0.8-1.1,1.2c-0.4,0.4-0.8,0.7-1.2,1.1
		c-0.4,0.3-0.8,0.6-1.1,0.8v0.1l4.6-0.2v1H341L341,105.2z M353.5,105.4c-0.6,0-1.1-0.2-1.6-0.5c-0.5-0.3-0.8-0.8-1.1-1.5
		c-0.3-0.6-0.4-1.4-0.4-2.3c0-0.9,0.1-1.6,0.4-2.3c0.2-0.6,0.5-1.1,0.9-1.4c0.4-0.4,0.8-0.6,1.2-0.8c0.4-0.2,0.8-0.2,1.2-0.2
		c0.6,0,1.1,0.2,1.6,0.5c0.5,0.3,0.8,0.8,1.1,1.4c0.3,0.6,0.4,1.4,0.4,2.3c0,0.9-0.1,1.6-0.4,2.3c-0.2,0.6-0.5,1.1-0.9,1.5
		c-0.4,0.4-0.8,0.6-1.2,0.8C354.3,105.3,353.9,105.4,353.5,105.4L353.5,105.4z M353.8,104.6c0.7,0,1.2-0.3,1.5-1
		c0.3-0.6,0.5-1.6,0.5-2.8c0-0.7-0.1-1.3-0.3-1.9c-0.2-0.6-0.4-1-0.7-1.3c-0.3-0.3-0.6-0.5-1-0.5c-0.7,0-1.2,0.3-1.5,1
		c-0.3,0.7-0.5,1.6-0.5,2.7c0,0.7,0.1,1.3,0.3,1.9c0.2,0.6,0.4,1,0.7,1.4C353.1,104.5,353.4,104.6,353.8,104.6L353.8,104.6z
		 M361,105.2v-1l2.2,0.2v-6.7l-2,1.1l-0.5-0.9l3.8-1.5h0.1v8l2.2-0.2v1H361L361,105.2z M370.7,105.2v-0.7c0.5-0.3,0.9-0.6,1.5-1.1
		c0.5-0.4,1-0.9,1.4-1.4c0.4-0.5,0.8-1,1.1-1.5c0.3-0.5,0.4-1,0.4-1.5c0-0.4-0.1-0.7-0.3-1.1c-0.2-0.3-0.5-0.6-1-0.7
		c-0.3,0-0.7,0-1.2,0.1c-0.5,0.1-0.9,0.2-1.3,0.3l-0.3-1c0.2-0.1,0.4-0.1,0.6-0.1c0.3,0,0.5-0.1,0.8-0.1c0.3,0,0.5-0.1,0.7-0.1
		c0.8,0,1.5,0.1,1.9,0.4c0.5,0.3,0.8,0.6,1,1c0.2,0.4,0.3,0.8,0.3,1.2c0,0.3-0.1,0.7-0.3,1.1c-0.2,0.4-0.5,0.8-0.8,1.2
		c-0.3,0.4-0.7,0.8-1.1,1.2c-0.4,0.4-0.8,0.7-1.2,1.1c-0.4,0.3-0.8,0.6-1.1,0.8v0.1l4.6-0.2v1H370.7L370.7,105.2z"/>
	<path class="st2" d="M202.4,36.1h-59.6l-0.1-20.6c0.3,0,1.5,0,1.6,0c2.8,0,5.4,1,7.4,2.9c1.7,1.7,2.9,4.1,3.1,7
		c4.4,0.2,9.4,0.2,14.1,0.1c4.2-0.1,8.3-0.4,11.7-0.8c3.1-0.4,5.5-0.8,7.4-1.3c1.5-0.4,2.6-0.8,3.6-1.4c0.3-3.1,1.3-5.5,3-7.4
		c1.7-2,4.2-3.5,7.5-4.5l0.2-0.1h0.4l0.2,0.1c3.2,1,5.7,2.5,7.5,4.5c1.6,1.9,2.6,4.3,3,7.4c0.9,0.6,2.1,1,3.6,1.4
		c1.8,0.5,4.2,0.9,7.4,1.3c3.4,0.5,7.5,0.7,11.7,0.8c4.8,0.1,9.7,0,14.1-0.1c0.2-3,1.4-5.3,3.1-7c1.9-1.9,4.5-2.9,7.4-2.9
		c0.2-0.1,1.4,0,1.6,0L262,36.1H202.4L202.4,36.1z M202.4,12.5c-2.5,0.9-4.4,2-5.7,3.5c-1.4,1.6-2.2,3.8-2.5,6.7l0,0.5l-0.5,0.3
		c-1.3,1-2.9,1.6-5,2.2c-2,0.5-4.5,0.9-7.7,1.4c-3.5,0.5-7.7,0.8-12.1,0.9c-5.3,0.1-10.8,0-15.6-0.2l-1.3-0.1v-1.5h0
		c0-2.7-1-4.8-2.4-6.2c-1.1-1.1-2.6-1.8-4.2-2l0.1,15.6h113.6l0.1-15.6c-1.6,0.2-3.1,0.9-4.2,2c-1.4,1.4-2.4,3.5-2.4,6.2h0v1.5
		l-1.3,0.1c-4.8,0.2-10.3,0.3-15.6,0.2c-4.3-0.1-8.5-0.4-12.1-0.9c-3.2-0.5-5.7-0.9-7.7-1.4c-2.1-0.5-3.7-1.2-5-2.2l-0.5-0.3l0-0.5
		c-0.2-2.9-1-5-2.5-6.7C206.8,14.5,204.9,13.4,202.4,12.5L202.4,12.5z"/>
	<path class="st2" d="M144,42.6l117.3,0v47.1c-0.3-0.1-0.6-0.2-0.9-0.2v-46H144.5v46c-0.3,0-0.6,0.1-0.9,0.3V42.6L144,42.6L144,42.6
		z M144.5,97.3v23.5c0,16.7,7.3,32,19.1,43c10.2,9.6,23.8,16,38.9,17.5c15.1-1.5,28.6-8,38.9-17.5c11.8-11,19.1-26.3,19.1-43V97.6
		c0.3,0.1,0.6,0.1,0.9,0.1v23c0,17-7.4,32.4-19.4,43.6c-10.4,9.7-24.2,16.2-39.5,17.8v0h-0.1v0c-15.3-1.5-29.1-8.1-39.5-17.8
		c-11.9-11.2-19.4-26.6-19.4-43.6V97.7C143.9,97.6,144.2,97.5,144.5,97.3L144.5,97.3z"/>
	<path class="st2" d="M144,41.7l118.1,0V91l-1.2-0.4c-0.2-0.1-0.3-0.1-0.4-0.1c-0.1,0-0.3-0.1-0.4-0.1l-0.7-0.1V44.4H145.4v45.8
		l-0.7,0.1c-0.1,0-0.2,0-0.4,0.1l0,0c-0.1,0-0.3,0.1-0.4,0.1l-1.2,0.4V41.7L144,41.7L144,41.7z M208.7,182.2h-12.6
		c-5.4-1-10.6-2.7-15.4-4.9c-6.9-3.1-13.1-7.3-18.4-12.3c-6.2-5.8-11.1-12.7-14.5-20.4c-3.3-7.4-5.1-15.5-5.1-23.9V97.7h0
		c0-1.5,0.5-2.5,1.7-3l1,0v0.9v25.3c0,8.1,1.7,15.8,4.9,22.9c3.3,7.3,8,14,13.9,19.5c5.1,4.8,11.1,8.8,17.7,11.8
		c6.4,2.9,13.3,4.8,20.6,5.5c7.3-0.8,14.2-2.7,20.6-5.5c6.6-3,12.5-7,17.7-11.8c5.9-5.5,10.7-12.2,13.9-19.5
		c3.1-7.1,4.9-14.8,4.9-22.9V94.7c1.9,0.3,2.6,1.2,2.7,3v23.1c0,8.5-1.8,16.5-5.1,23.9c-3.4,7.7-8.4,14.6-14.5,20.4
		c-5.3,5-11.6,9.2-18.4,12.3C219.3,179.5,214.1,181.2,208.7,182.2L208.7,182.2z"/>
	<path class="st2" d="M152.5,50.3h101.1v40.1l-0.8,0.1c-0.1,0-0.3,0-0.4,0c-0.1,0-0.2,0-0.4,0.1l-1,0.2v-38h-97.3v39.4l-1.1-0.3
		l-0.4-0.1l-0.4-0.1l-0.7-0.1V50.3H152.5L152.5,50.3z M202.7,174.6h-0.5l-0.1,0c-14.2-1.6-27.1-8.3-36.3-18.3
		c-9-9.8-14.5-22.7-14.5-36.9V96.9c1.8,0.3,2.6,1.4,2.5,3.2l0,0v19.3c0,13.6,5.3,25.9,13.9,35.3c8.8,9.5,21.1,15.9,34.7,17.4
		c13.6-1.5,25.9-7.9,34.7-17.4c8.6-9.3,13.9-21.7,13.9-35.3v-19.1l0,0c0-1.9,0.7-2.9,2.5-3.2v22.4c0,14.2-5.5,27.1-14.6,36.9
		c-9.2,10-22,16.7-36.3,18.3L202.7,174.6L202.7,174.6z"/>
	<polygon class="st2" points="274.6,183.2 130.2,183.2 130.2,180.6 274.6,180.6 274.6,183.2 	"/>
	<polygon class="st2" points="237.1,193.4 167.8,193.4 167.8,190.7 237.1,190.7 237.1,193.4 	"/>
	<path class="st2" d="M274.7,110.2v4.1h-2.9v-4.1H274.7L274.7,110.2z M274.7,118.4v4.2c0,10.2-2.2,20-6.1,28.9
		c-3.3,7.5-7.9,14.4-13.4,20.4h-3.9c6.2-6.3,11.2-13.6,14.7-21.5c3.8-8.6,5.9-18,5.9-27.8v-5.1C272.8,118,273.8,118.3,274.7,118.4
		L274.7,118.4z M149.7,171.9c-5.6-6.1-10.1-12.9-13.4-20.4c-4-8.9-6.1-18.7-6.1-28.9v-4.2c0.9-0.1,1.9-0.4,2.9-0.9v5.1
		c0,9.8,2.1,19.2,5.9,27.8c3.5,8,8.6,15.3,14.7,21.5H149.7L149.7,171.9z M130.2,114.3v-4.1h2.9v4.1H130.2L130.2,114.3z"/>
	<polygon class="st2" points="102.6,171.8 175.3,171.8 175.3,174.4 102.6,174.4 102.6,171.8 	"/>
	<path class="st2" d="M202.6,31h-0.4c-0.1,0-0.1-0.1-0.2-0.1c-0.8-0.3-1.4-0.7-2-1.2c-0.6-0.5-1.1-1-1.5-1.7c-0.9-1.4-1.3-3-1.3-4.5
		c0-1.6,0.4-3.2,1.3-4.5c0.4-0.6,0.9-1.2,1.5-1.7c0.6-0.5,1.2-0.8,2-1.2l0.2-0.1h0.4l0.2,0.1c0.8,0.3,1.4,0.7,2,1.2
		c0.6,0.5,1.1,1,1.5,1.7c0.9,1.4,1.3,3,1.3,4.5c0,1.6-0.4,3.2-1.3,4.5c-0.4,0.6-0.9,1.2-1.5,1.7c-0.6,0.5-1.2,0.8-2,1.2
		C202.7,30.9,202.7,30.9,202.6,31L202.6,31z M203.5,27.6c0.4-0.3,0.7-0.6,0.9-1l0,0c0.6-0.9,0.9-2,0.9-3.1c0-1.1-0.3-2.2-0.9-3.1
		l0,0c-0.3-0.4-0.6-0.7-0.9-1c-0.3-0.3-0.7-0.5-1.1-0.7c-0.4,0.2-0.8,0.4-1.1,0.7c-0.4,0.3-0.7,0.6-0.9,1c-0.6,0.9-0.9,2-0.9,3.1
		s0.3,2.2,0.9,3.1c0.3,0.4,0.6,0.7,0.9,1c0.3,0.3,0.7,0.5,1.1,0.7C202.8,28.1,203.2,27.9,203.5,27.6L203.5,27.6z"/>
	<polygon class="st2" points="302.4,174.4 229.8,174.4 229.8,171.8 302.4,171.8 302.4,174.4 	"/>
	<path class="st3" d="M191.4,82.6c0,4,0.7,6.2,1.9,9.6c1.9,5.1,4.2,11.4,5.8,16.4c0.9,2.8,1.6,6.6,1.6,9.7l-0.1,1.8l3.7,0
		c0.3-6.1,0.2-7.2,2-12.7c0.4-1.3,0.8-2.4,1.2-3.6c0.9-2.3,1.7-4.8,2.6-7.2c0.9-2.4,1.8-4.8,2.5-7.2c2.1-6.8,0.8-13.9-2.9-19.4
		c-0.5-0.7-1.5-2.1-2.1-2.8c-0.2-0.2-0.3-0.4-0.5-0.6c-0.4-0.4-1.4-1.5-1.8-1.8c-1.2-0.9-1.2-1.1-2.7-2.1c-1.1,0.5-4.2,3.4-5.1,4.5
		c-1,1.2-1.6,1.8-2.5,3.4C192.9,74,191.4,77.7,191.4,82.6L191.4,82.6z"/>
	<path class="st3" d="M208.9,120.2c0.2-1.9,1.1-5,1.8-6.8c1.2-2.9,2.3-4.5,4.1-6.5c0.6-0.7,1-1.1,1.6-1.6c2.1-2.1,6-2.9,8.8-1.7
		c2.2,0.9,3.5,3.1,2.9,5.4c-1,3.9-5.1,5.1-7.9,3.5c-0.4-0.3-2.2-2-2.3,0.3c0,1.4,0.6,2.4,1.3,3c1.1,0.8,2.4,0.5,3.1,1
		c0,0.8-1.7,2.9-1.1,6c0.2,1,0.5,1.9,1,2.7c0.4,0.8,1,1.4,1.6,2c4.5,4,9.4-1,8.5-2.6c-0.6-0.1-0.8,0.4-1.9,0.6
		c-3.5,0.8-6.3-3.6-3.3-6.9c0.4-0.5,2.2-2,3.4-1.7c0.3,0.4,0.1,0.8,0.3,1.4c0.2,1.2,1.5,2.5,2.3,2.4c1.1-0.2,0.1-1.5-0.1-2.1
		c-0.6-1.9,0.4-3.3,1.3-4.7c0.4-0.6,0.7-1.4,1.1-2.1c2.3-5,2.3-10.7-0.6-15.1c-1.4-2.1-4-4.6-7.3-5.2c-1.7-0.3-4-0.2-5.6,0.3
		c-1.9,0.6-3.5,1.8-4.9,2.9l-1.6,1.5c-1.2,1.2-2.2,2.5-3,4.1c-0.8,1.5-1.6,3.2-2.2,4.9c-1.7,4.4-3.4,10.7-3.8,15.4L208.9,120.2
		L208.9,120.2z"/>
	<path class="st3" d="M172.4,124.9c-0.5,0.9,1.4,2.8,2.5,3.4c0.8,0.4,1.5,0.5,2.5,0.5c1.7,0,2.3-0.6,3.3-1.2c0.8-0.5,1.6-1.7,2-2.5
		c1.3-2.4,1.2-4.7,0.2-7.2c-0.7-1.6-0.4-1.3,0.9-1.4c3.6-0.5,4-5.2,2.2-4.7c-0.3,0.1-0.7,0.4-1,0.5c-1.8,1.2-4.1,1.3-5.8,0.1
		c-2.6-1.7-3.6-5.6-0.8-8c1.1-1,2.7-1.4,4.6-1.4c3.6,0.1,6.2,2.5,8.2,5.3c2.1,2.9,3.5,5.8,4.3,9.4c0.1,0.6,0.3,2.1,0.5,2.6l2.5,0
		c0-2.2-0.6-4.6-1-6.7c-0.9-4.1-2.2-7.7-3.8-11.4c-0.4-0.9-0.8-1.7-1.3-2.5c-0.5-0.9-1-1.5-1.5-2.2l-1.8-2c-2-1.9-4.3-3.4-7.3-4
		c-2.3-0.4-4.5-0.2-6.5,0.7c-1.7,0.7-3.2,1.9-4.3,3.3c-2.6,3.3-3.7,7.5-2.9,11.9c0.6,3.5,1.9,5.4,3.4,8.1c1.3,2.6,0.2,3.2-0.1,4.4
		c-0.2,0.7,0.3,1,0.9,0.8c0.7-0.2,1.5-1.3,1.7-2c0.5-1.3-0.2-2.3,1.8-1.4c0.4,0.2,0.9,0.5,1.2,0.7l1,0.9c2.3,2.8,0.6,6.8-2.4,6.9
		C173.6,125.5,173,124.5,172.4,124.9L172.4,124.9z"/>
	<path class="st3" d="M192.1,145.7c0.3,0.3,1.3,0.6,1.8,0.8c1.1,0.4,2.4,1.2,3.3,1.9c0.3,0.2,0.4,0.4,0.7,0.6c0.4,0.3,1,0.9,1.3,1.3
		c0.2,0.2,0.4,0.5,0.6,0.7c0.4,0.4,0.7,1,1,1.5c0.7,1.2,0.8,1.7,1.2,2.8c0.1,0.3,0.2,0.7,0.4,0.8c0.1-0.3,0.2-0.6,0.3-1
		c0.2-0.7,0.9-2,1.2-2.7c1.7-2.9,3.9-4.7,6.9-6l1.8-0.7c0,0,0,0,0,0c0,0,0,0,0,0c-0.7-0.1-2-0.7-2.5-1.1c-3.5-2-5.7-7.4-6.5-11.4
		c-0.7-3.5-0.3-5.1-0.5-6.7l-1.8,0c-0.1,1.2,0,2.3-0.1,3.5c-0.4,4-1.4,7.6-3.4,10.9c-1.1,1.8-2.7,3.3-4.7,4.2L192.1,145.7
		L192.1,145.7z"/>
	<path class="st3" d="M196.1,126.6c-0.1,1,0,1.9-0.2,2.9c-0.5,3.5-2.8,8.3-6.8,8.6c-1.6,0.1-3.4-0.6-4.3-1.9c-1-1.5-1-3.2,0.2-4.4
		c1.1-1.2,3.2-0.3,3.6-1c0.2-0.4,0-0.9-0.2-1.1c-0.9-1.1-3.4-1.1-4.8-0.4c-2.2,1-3.1,3.6-3.2,6c0,1.2,0,1.7,0.5,2.7
		c1.4,3,3.8,4.9,7.1,5.1c1.7,0.1,3.6-0.5,4.8-1.3c2.2-1.5,4.2-4.5,5.1-7.2c0.6-1.6,0.9-3.2,1-5.2c0-0.6,0.2-2.5-0.2-2.8
		C198.6,126.5,196.6,126.5,196.1,126.6L196.1,126.6z"/>
	<path class="st3" d="M205.7,128.6c0,3.7,1.3,7.2,2.9,9.7c1.7,2.8,4.2,4.8,7.7,4.8c1.6,0,3.2-0.5,4.5-1.3l1.1-0.8
		c1.8-1.8,2.3-2.9,2.3-5.5c0-2.6-0.2-3.3-1.5-5c-0.4-0.5-1-1-1.8-1.3c-0.7-0.3-1.6-0.5-2.5-0.3c-0.6,0.1-1.8,0.5-2.1,0.9
		c-0.2,0.3-0.2,0.9,0,1.2c0.3,0.3,0.8,0.2,1.2,0.2c1.8-0.2,3.1,0.9,3.2,3c0,1.2-0.3,1.9-0.9,2.5c-1.2,1.2-3.4,1.8-5.1,1.2
		c-1.1-0.4-2.4-1.3-3-2.1c-2.1-2.6-2.8-5.6-2.8-9.2c-0.3-0.1-2.7,0-3,0.1L205.7,128.6L205.7,128.6z"/>
	<path class="st3" d="M194.2,123.9c0.2,1.6,2,1.4,3.5,1.5c3.5,0.1,7.5,0,11.1,0c0.3,0,0.8,0.1,1.1-0.2c0.4-0.4,0.9-0.8,0.8-1.6
		c0-0.6-0.7-1.4-1-1.5c-0.6-0.1-1.8,0-2.5,0c-1.6,0-11.3-0.2-12.2,0.2C194.5,122.5,194.1,123.2,194.2,123.9L194.2,123.9z"/>
	<path class="st2" d="M63.6,165.4c0-0.6,0.2-1.2,0.3-1.7L64,162C64.3,163,64.1,164.6,63.6,165.4L63.6,165.4z M155,90.8
		c-1.4-1.1-4.5,0.1-7-0.9c-2.4-1-6.7-2.1-8.2-1.2c-1.5,0.9-2.6,3.8-4.2,5.6c-1.7,1.8-4.2,3.2-4.2,3.2c-0.2-1.6-0.9-3-2.5-5
		c-1.7-2-5.8-2.8-7.2-4.1c-1.5-1.3-1.5-5.7-1.5-5.7c1.2,0.3,3.5,0.2,3.5,0.2c2.3,2.3,6.3,3,6.3,3s1,2.4,4.2,1.8
		c3.3-0.7,2.6-3.3,2.6-3.3c2.1-1.5,0.2-3.9-1.5-5.1c-1.6-1.2-6-6.6-7.7-9.2c-1.2-1.8-2.3-3.1-4.2-3.9c2.1-2.4,1.7-4.6,1.7-4.6
		c-0.6,0.3-1.1,0.6-1.5,0.9c0.1-1.3-0.1-2.1-0.1-2.1c-2.5,1.5-3.9,3.6-4.6,5.1c-0.9,0-1.7,0-2.6,0.1c-2-0.5-7.6-1.6-12.5,0.8
		c0,0,1.7-0.1,3.5,1.1c0,0-4.8,0.4-7.5,2.6c0,0,1.7,0.7,1,2c-0.8,1.3-3.8,3.1-8.1,2.3c0,0,0.5,1.2,3.6,1.7c0,0-2.7,2-3.9,5
		c0,0,1.4-0.9,3.5-1.4c0,0-3.2,2.4-4.1,5.1c0,0,1.1-1,3.1-1c0,0-1.8,1.1-2.1,2.7c-0.3,1.6,0.8,3.3-0.1,5.1c-0.9,1.8-1.2,2.2-2.5,2.6
		c0,0,3.2,0.1,4.8-1.8c0,0,0.6,0.7-0.4,2.3c-1,1.6-2.9,3.3-2,6.6c0,0,0.8-3.3,3.4-4.4c0,0-0.1,2.9,0.6,4c0.6,1.1,1,3.1-1,5.7
		c0,0,2.2-0.6,4-2.8c-0.2,2-0.6,3.6-1.1,4.7c-2.7,5-8.5,7-17.3,13.1c-6.2,4.3-8,6.7-9,10.1c-0.3,1.1-0.5,2.2-0.6,3.2l-2.6,2
		c-4.3,3.6-7.9,4-8.1,11.1l0.4,4.1c0.3,0.7,0.6,4.2,0.6,4.8c-0.1,1.4-0.1,3.1-1.4,4.6c-0.7,0.6-1,0.7-1.7,1.1
		c-0.4,0.2-0.8,0.3-1.2,0.5c-0.1,0.1-0.5,0.2-0.6,0.2c-0.4,0.2-0.4,0-0.2,0.3c0.2-0.1,0.5,0,0.8,0c1.3,0.1,1.5-0.4,2.4-0.6l-0.8,1
		c-0.1,0.2-0.1,0.1-0.1,0.3c2.4-1,3.1-1.7,4-4.3c0.2,1.1,0.1,3.7-0.3,4.8c-0.6,2.2-1.5,2.7-3.6,3.8c0.6,0.2,0.9,0,1.5-0.1l-2.3,1.7
		l-0.7,0.5c0.2,0,0.1,0,0.3,0c0.6,0,0.9-0.2,1.3-0.2c-2.1,2.8-1.1,1.8-2,3.4c0.1,0.4,0,0.4,0,0.8c0,0.2-0.1,0.6-0.1,0.8
		c0,0.8,0.3,1,0.4,1.7l0.5,0.7c0.6,0.2,0.8,0.5,1.5,0.2l-0.5-0.2c-0.9-0.5-1.2-2.1-1.1-2.7c0.5,1,1.2,1.1,2.1,0.6c0,0-0.1,0-0.1,0
		l-0.3-0.1c-1.7-0.4-0.8-2-0.6-2.1c0-0.2-0.1,0,0.1-0.4c0.1-0.2,0.2-0.2,0.3-0.4c1.1-1.2,3.7-3.4,5-4.4c-0.3,0.4-0.6,0.9-1,1.4
		c-0.4,0.4-1.1,0.9-1.2,1.2c4.6-0.7,4.6-6.5,5-7.7c0.1,0.6,0.1,1.2,0.1,1.7c-0.1,1.3-1,3.9-1.8,4.7c0.1,0,0.2,0.2,0.7-0.3
		c0.2-0.1,0.4-0.4,0.5-0.6c0.2-0.4,0.3-0.7,0.6-1.1c0.4-1.9,0.7-1.6,0.6-4.1c0-0.5-0.1-0.9-0.1-1.4c-0.3-0.9-0.5-1.2-0.2-2.1
		c0.2-0.4,0.2-0.7,0.3-1.1l0.1-0.8c0-0.2,0-0.1,0-0.3l-0.1-0.2c-0.4-0.8-0.5-1.5-0.2-2.2l1.3,1.1c0.5,0.5,0.8,1.1,0.9,1.8
		c0.1,0.3,0.1,0.2,0.1,0.5c0,0.1,0,0.2,0,0.3l0,0.2c0.9-1.5,0.1-2.8,0-3.2c1.1,0.9,1.5,1.8,1.4,3.2c-0.1,0.6-0.2,1.1-0.5,1.6
		c-0.2,0.5-0.6,1.1-0.7,1.5l1.2-1c-0.1,1.2-0.1,1.1,0.4,2.4c0.3,0.2,0.1-0.2,0.1-0.6c0-0.4,0-0.5,0.1-0.8c0.1-0.6,0.2-1.1,0.6-1.7
		c0-0.1,1.8-3.1,1.8-3.2c0-0.4,0.1-0.4,0.1-0.9c0-0.6,0.1-1-0.1-1.7c-0.1-0.4-0.2-0.4-0.2-0.9l-1-1.3l-0.9-0.8
		c-1.1-1-5.1-2.9-2.7-5.3c-0.1,0.5-0.3,1.4,0,2.4c0.5,1.4,1.9,1.6,2.6,1.5c-1.3-1-1.9-1.9-1.5-3.1c0.7-2,0.3-3.6-0.3-5.6
		c-0.5-1.7-0.3-2.6,0.4-3.5l0,0.1c-0.2,6.2,5,10.8,7.3,12.6c2.5,1.9,4.1,4.3,4.2,6.1c0.1,1.8-2,4.7-2.8,5.6
		c-0.8,0.9-2.8,2.8-2.7,5.1c0.1,2.4,3.8,5.2,6.4,9.1c2.5,3.9,2.6,6.2,3.8,7.3c0.8,0.7,1-0.2,2.1-0.2c0.5,0,1,0.4,1,1.9
		c0,1.5,0.8,2.7,0.8,2.7c3.2,1,6.1,0,6.1,0c-0.4-1.8-2.1-3.6-4.2-5.5c-2.1-2-4.6-4.4-6.5-7.7c-1.9-3.3-1.7-5.7-1.7-5.7
		c0.1-7.1,3.9-7.1,7.7-12.2c1.4-1.9,2.5-3.9,3.1-5.7c3.3-0.4,6.5-1,8.6-1c4.3,0.1,6,8.3,7.1,11.7c1.2,3.4,4,3.6,6.8,3.5
		c2.8-0.1,5.4,0,7.1,0.1c1.7,0.1,2.4,3.2,3.2,3.4c0.8,0.1,1.3-0.8,1.9-0.6c0.6,0.1,0.8,0.9,1.2,2c0.3,1.1,1.4,2.3,1.4,2.3
		c3.1,0.5,5.8-0.9,5.8-0.9c-1-2-3.8-4-6.6-5.9c-2.8-1.9-5.1-3.6-8.9-4.2c-3.8-0.6-7.2-4.7-7.6-8c-0.4-3.3-1.1-9.2-5.3-14.2
		c-1.6-1.8-3.5-3.1-5.4-3.9c14.7-8.8,23.1-19.5,23.1-19.5c6.5-0.3,10-4.9,11.3-4.8c1.2,0.1,1.6,1.1,1.8,3.1c0.2,2-1,4.3-1.1,5.2
		c-0.2,0.9,1,1.2,0.9,2.3c-0.1,1.1-1.3,0.6-1.3,0.6c-1.6-0.2-2.9,0.4-2.9,0.4c-0.8,2.8,0,6.2,0,6.2c2-0.9,7.2-6.1,7.9-7.2
		c0.7-1.1-0.2-4-0.6-6.5c-0.4-2.5,0.8-5.4-0.3-7c-1.1-1.6-4.2-0.9-5.6-0.7c-1.4,0.2-3,0-3,0c4.2-2.7,5.5-11,6.5-13.8
		c1-2.7,5.1-2.8,7.6-0.8c2.6,2,5.6,1.2,5.6,1.2c1,1.3,0.9,1.7,0.3,2.5c-0.6,0.8-0.2,2.2-0.2,2.2c2.4,2.3,6.1,1.8,6.1,1.8
		C159.7,99.1,156.4,92,155,90.8L155,90.8z M67.1,159.6c-0.5-1.1-0.1-1,0.3-2C67.6,158.2,67.4,159.1,67.1,159.6L67.1,159.6z"/>
	<path class="st3" d="M341.5,165.4c0-0.6-0.2-1.2-0.3-1.7L341,162C340.8,163,340.9,164.6,341.5,165.4L341.5,165.4z M250,90.8
		c1.4-1.1,4.5,0.1,7-0.9c2.4-1,6.7-2.1,8.2-1.2c1.5,0.9,2.6,3.8,4.2,5.6c1.7,1.8,4.2,3.2,4.2,3.2c0.2-1.6,0.9-3,2.5-5
		c1.7-2,5.8-2.8,7.2-4.1c1.5-1.3,1.5-5.7,1.5-5.7c-1.2,0.3-3.5,0.2-3.5,0.2c-2.3,2.3-6.3,3-6.3,3s-1,2.4-4.2,1.8
		c-3.3-0.7-2.6-3.3-2.6-3.3c-2.1-1.5-0.2-3.9,1.5-5.1c1.6-1.2,6-6.6,7.7-9.2c1.2-1.8,2.3-3.1,4.2-3.9c-2.1-2.4-1.7-4.6-1.7-4.6
		c0.6,0.3,1.1,0.6,1.5,0.9c-0.1-1.3,0.1-2.1,0.1-2.1c2.5,1.5,3.9,3.6,4.6,5.1c0.9,0,1.7,0,2.6,0.1c2-0.5,7.6-1.6,12.5,0.8
		c0,0-1.7-0.1-3.5,1.1c0,0,4.8,0.4,7.5,2.6c0,0-1.7,0.7-1,2c0.8,1.3,3.8,3.1,8.1,2.3c0,0-0.5,1.2-3.6,1.7c0,0,2.7,2,3.9,5
		c0,0-1.4-0.9-3.5-1.4c0,0,3.2,2.4,4.1,5.1c0,0-1.1-1-3.1-1c0,0,1.8,1.1,2.1,2.7c0.3,1.6-0.8,3.3,0.1,5.1c0.9,1.8,1.2,2.2,2.5,2.6
		c0,0-3.2,0.1-4.8-1.8c0,0-0.6,0.7,0.4,2.3c1,1.6,2.9,3.3,2,6.6c0,0-0.8-3.3-3.4-4.4c0,0,0.1,2.9-0.6,4c-0.6,1.1-1,3.1,1,5.7
		c0,0-2.2-0.6-4-2.8c0.2,2,0.6,3.6,1.1,4.7c2.7,5,8.5,7,17.3,13.1c6.2,4.3,8,6.7,9,10.1c0.3,1.1,0.5,2.2,0.6,3.1l2.6,2
		c4.3,3.6,7.9,4,8.1,11.1l-0.4,4.1c-0.3,0.7-0.6,4.2-0.6,4.8c0.1,1.4,0.1,3.1,1.4,4.6c0.7,0.6,1,0.7,1.7,1.1
		c0.4,0.2,0.8,0.3,1.2,0.5c0.1,0.1,0.5,0.2,0.6,0.2c0.4,0.2,0.4,0,0.2,0.3c-0.2-0.1-0.5,0-0.8,0c-1.3,0.1-1.5-0.4-2.4-0.6l0.8,1
		c0.1,0.2,0.1,0.1,0.1,0.3c-2.4-1-3.1-1.7-4-4.3c-0.2,1.1-0.1,3.7,0.3,4.8c0.6,2.2,1.5,2.7,3.6,3.8c-0.6,0.2-0.9,0-1.5-0.1l2.3,1.7
		l0.7,0.5c-0.2,0-0.1,0-0.3,0c-0.6,0-0.9-0.2-1.3-0.2c2.1,2.8,1.1,1.8,2,3.4c-0.1,0.4,0,0.4,0,0.8c0,0.2,0.1,0.6,0.1,0.8
		c0,0.8-0.3,1-0.4,1.7l-0.5,0.7c-0.6,0.2-0.8,0.5-1.5,0.2l0.5-0.2c0.9-0.5,1.2-2.1,1.1-2.7c-0.5,1-1.2,1.1-2.1,0.6c0,0,0.1,0,0.1,0
		l0.3-0.1c1.7-0.4,0.8-2,0.6-2.1c0-0.2,0.1,0-0.1-0.4c-0.1-0.2-0.2-0.2-0.3-0.4c-1.1-1.2-3.7-3.4-5-4.4c0.3,0.4,0.6,0.9,1,1.4
		c0.4,0.4,1.1,0.9,1.2,1.2c-4.6-0.7-4.6-6.5-5-7.7c-0.1,0.6-0.1,1.2-0.1,1.7c0.1,1.3,1,3.9,1.8,4.7c-0.1,0-0.2,0.2-0.7-0.3
		c-0.2-0.1-0.4-0.4-0.5-0.6c-0.2-0.4-0.3-0.7-0.6-1.1c-0.4-1.9-0.7-1.6-0.6-4.1c0-0.5,0.1-0.9,0.1-1.4c0.3-0.9,0.5-1.2,0.2-2.1
		c-0.2-0.4-0.2-0.7-0.3-1.1L337,158c0-0.2,0-0.1,0-0.3l0.1-0.2c0.4-0.8,0.5-1.5,0.2-2.2l-1.3,1.1c-0.5,0.5-0.8,1.1-0.9,1.8
		c-0.1,0.3-0.1,0.2-0.1,0.5c0,0.1,0,0.2,0,0.3l0,0.2c-0.9-1.5-0.1-2.8,0-3.2c-1.1,0.9-1.5,1.8-1.4,3.2c0.1,0.6,0.2,1.1,0.5,1.6
		c0.2,0.5,0.6,1.1,0.7,1.5l-1.2-1c0.1,1.2,0.1,1.1-0.4,2.4c-0.3,0.2-0.1-0.2-0.1-0.6c0-0.4,0-0.5-0.1-0.8c-0.1-0.6-0.2-1.1-0.6-1.7
		c0-0.1-1.8-3.1-1.8-3.2c0-0.4-0.1-0.4-0.1-0.9c0-0.6-0.1-1,0.1-1.7c0.1-0.4,0.2-0.4,0.2-0.9l1-1.3l0.9-0.8c1.1-1,5.1-2.9,2.7-5.3
		c0.1,0.5,0.3,1.4,0,2.4c-0.5,1.4-1.9,1.6-2.6,1.5c1.3-1,1.9-1.9,1.5-3.1c-0.7-2-0.3-3.6,0.3-5.6c0.5-1.7,0.3-2.7-0.4-3.5l0,0.1
		c0.2,6.2-5,10.8-7.3,12.6c-2.5,1.9-4.1,4.3-4.2,6.1c-0.1,1.8,2,4.7,2.8,5.6c0.8,0.9,2.8,2.8,2.7,5.1c-0.1,2.4-3.8,5.2-6.4,9.1
		c-2.5,3.9-2.6,6.2-3.8,7.3c-0.8,0.7-1-0.2-2.1-0.2c-0.5,0-1,0.4-1,1.9c0,1.5-0.8,2.7-0.8,2.7c-3.2,1-6.1,0-6.1,0
		c0.4-1.8,2.1-3.6,4.2-5.5c2.1-2,4.6-4.4,6.5-7.7c1.9-3.3,1.7-5.7,1.7-5.7c-0.1-7.1-3.9-7.1-7.7-12.2c-1.4-1.9-2.5-3.9-3.1-5.7
		c-3.3-0.4-6.5-1-8.6-1c-4.3,0.1-6,8.3-7.1,11.7c-1.2,3.4-4,3.6-6.8,3.5c-2.8-0.1-5.4,0-7.1,0.1c-1.7,0.1-2.4,3.2-3.2,3.4
		c-0.8,0.1-1.3-0.8-1.9-0.6c-0.6,0.1-0.8,0.9-1.2,2c-0.3,1.1-1.4,2.3-1.4,2.3c-3.1,0.5-5.8-0.9-5.8-0.9c1-2,3.8-4,6.6-5.9
		c2.8-1.9,5.1-3.6,8.9-4.2c3.8-0.6,7.2-4.7,7.6-8c0.4-3.3,1.1-9.2,5.3-14.2c1.6-1.8,3.5-3.1,5.4-3.9c-14.7-8.8-23.1-19.5-23.1-19.5
		c-6.5-0.3-10-4.9-11.3-4.8c-1.2,0.1-1.6,1.1-1.8,3.1c-0.2,2,1,4.3,1.1,5.2c0.2,0.9-1,1.2-0.9,2.3c0.1,1.1,1.3,0.6,1.3,0.6
		c1.6-0.2,2.9,0.4,2.9,0.4c0.8,2.8,0,6.2,0,6.2c-2-0.9-7.2-6.1-7.9-7.2c-0.7-1.1,0.2-4,0.6-6.5c0.4-2.5-0.8-5.4,0.3-7
		c1.1-1.6,4.2-0.9,5.6-0.7c1.4,0.2,3,0,3,0c-4.2-2.7-5.5-11-6.5-13.8c-1-2.7-5.1-2.8-7.6-0.8c-2.6,2-5.6,1.2-5.6,1.2
		c-1,1.3-0.9,1.7-0.3,2.5c0.6,0.8,0.2,2.2,0.2,2.2c-2.4,2.3-6.1,1.8-6.1,1.8C245.3,99.1,248.6,92,250,90.8L250,90.8z M337.9,159.6
		c0.5-1.1,0.1-1-0.3-2C337.4,158.2,337.6,159.1,337.9,159.6L337.9,159.6z"/>
	<path class="st1" d="M77.3,234.2h1.5V246h-1.5c-0.5-2.1-1.2-3.4-2-3.9c-0.8-0.5-2.5-0.8-5.1-0.8H57.7v17.2c0,1.2,0.3,2,0.8,2.5
		c0.6,0.5,1.5,0.7,2.9,0.7h8.8c3.2,0,5.4-0.2,6.6-0.5c1.2-0.3,2.2-0.9,3.1-1.8c0.8-0.9,1.7-2.3,2.7-4.3H84l-2.3,9H45.2v-1.4
		c2.3,0,3.8-0.6,4.6-1.7c0.8-1.1,1.2-3.1,1.2-5.9v-30.1c0-2.9-0.4-4.9-1.2-6c-0.8-1.1-2.3-1.6-4.5-1.6V216h36.5v8.1h-1
		c-0.5-2.3-1.3-3.8-2.2-4.6c-1-0.8-3.1-1.1-6.3-1.1H57.7V239h14.1c1.9,0,3.2-0.3,3.9-1C76.5,237.3,77,236.1,77.3,234.2L77.3,234.2z
		 M231.5,215.3h1.6v11.3h-1.6c-0.4-3.1-1.6-5.5-3.7-7.3c-3.9-3.2-12-3.6-15.9-0.6c-1.7,1.3-2.6,3.1-2.6,5.3c0,2,0.7,3.9,2.2,5.5
		c1.4,1.7,5.6,3.8,10.4,6.4c5.6,3,9.4,5.7,11.3,8c1.9,2.3,2.9,4.9,2.9,7.8c0,3.8-1.5,7-4.4,9.7c-5.9,5.4-13.7,4.5-20.9,2.2
		c-1.5-0.5-2.5-0.7-2.9-0.7c-0.9,0-1.6,0.6-2,1.8h-1.6v-13h1.6c0,3.6,1.3,6.5,3.9,8.6c4.3,3.6,13.1,4.6,17.7,0.9
		c1.9-1.6,2.9-3.7,2.9-6.3c0-1.9-0.8-3.8-2.4-5.6c-1.6-1.8-5.9-4.1-11-6.8c-4.2-2.3-6.9-4.1-8.3-5.5s-2.4-2.8-3.1-4.4
		c-0.7-1.6-1-3.4-1-5.3c0-3.7,1.3-6.7,4-9c4.9-4.2,13.1-4,19.1-2.2c1.3,0.4,2.2,0.6,2.7,0.6c0.4,0,0.7-0.1,0.9-0.2
		C231.2,216.3,231.4,215.9,231.5,215.3L231.5,215.3z M30.4,215.3H32v11.3h-1.6c-0.4-3.1-1.6-5.5-3.7-7.3c-3.9-3.2-12-3.6-15.9-0.6
		c-1.7,1.3-2.6,3.1-2.6,5.3c0,2,0.7,3.9,2.2,5.5c1.4,1.7,5.6,3.8,10.4,6.4c5.6,3,9.4,5.7,11.3,8c1.9,2.3,2.9,4.9,2.9,7.8
		c0,3.8-1.5,7-4.4,9.7c-5.9,5.4-13.7,4.5-20.9,2.2c-1.5-0.5-2.5-0.7-2.9-0.7c-0.9,0-1.6,0.6-2,1.8H3v-13h1.6c0,3.6,1.3,6.5,3.9,8.6
		c4.3,3.6,13.1,4.6,17.7,0.9c1.9-1.6,2.9-3.7,2.9-6.3c0-1.9-0.8-3.8-2.4-5.6c-1.6-1.8-5.9-4.1-11-6.8c-4.2-2.3-6.9-4.1-8.3-5.5
		c-1.4-1.3-2.4-2.8-3.1-4.4c-0.7-1.6-1-3.4-1-5.3c0-3.7,1.3-6.7,4-9c4.9-4.2,13.1-4,19.1-2.2c1.3,0.4,2.2,0.6,2.7,0.6
		c0.4,0,0.7-0.1,0.9-0.2C30.1,216.3,30.2,215.9,30.4,215.3L30.4,215.3z M128.8,217.4V216h15.3v1.4c-2.5,0-4.2,0.5-5.1,1.6
		c-1,1.1-1.4,3.1-1.4,6v39.1h-1.6l-33-40.3v32.2c0,2.4,0.5,4.1,1.5,5.1c1,1,2.7,1.5,5.1,1.5v1.4H94.2v-1.4c2.5,0,4.1-0.6,5-1.8
		c0.9-1.2,1.3-3.4,1.3-6.4v-28.1c0-3-0.6-5.2-1.8-6.6c-1.2-1.3-3.1-2.1-5.8-2.4V216h13l29,35.9v-26.5c0-3-0.4-5-1.3-6.2
		C132.8,218,131.2,217.4,128.8,217.4L128.8,217.4z M184.9,234.2h1.5V246h-1.5c-0.5-2.1-1.2-3.4-2-3.9c-0.8-0.5-2.5-0.8-5.1-0.8
		h-12.6v17.2c0,1.2,0.3,2,0.8,2.5c0.6,0.5,1.5,0.7,2.9,0.7h8.8c3.2,0,5.4-0.2,6.6-0.5c1.2-0.3,2.2-0.9,3.1-1.8
		c0.8-0.9,1.7-2.3,2.7-4.3h0.6l-1.4,9h-36.5v-1.4c2.3,0,3.8-0.6,4.6-1.7s1.2-3.1,1.2-5.9v-30.1c0-2.9-0.4-4.9-1.2-6
		c-0.8-1.1-2.3-1.6-4.5-1.6V216h36.5v8.1h-1c-0.5-2.3-1.3-3.8-2.2-4.6c-1-0.8-3.1-1.1-6.3-1.1h-14.6V239h14.1c1.9,0,3.2-0.3,3.9-1
		C184.1,237.3,184.6,236.1,184.9,234.2L184.9,234.2z M284.6,255.1v-14h-26.4v14c0,2.8,0.4,4.8,1.3,6c0.8,1.1,2.4,1.7,4.6,1.7v1.4
		h-18.3v-1.4c2.2,0,3.7-0.6,4.5-1.7c0.8-1.1,1.2-3.1,1.2-5.9v-30c0-3-0.4-5-1.2-6.1c-0.8-1.1-2.3-1.6-4.5-1.6V216H264v1.4
		c-2.2,0-3.7,0.6-4.6,1.7c-0.8,1.2-1.3,3.1-1.3,5.9v13.7h26.4v-13.7c0-3-0.4-5-1.2-6c-0.8-1.1-2.3-1.6-4.5-1.6V216H297v1.4
		c-2.2,0-3.7,0.6-4.5,1.7c-0.8,1.1-1.3,3.1-1.3,6v30c0,2.9,0.4,4.9,1.3,6c0.8,1.1,2.3,1.7,4.5,1.7v1.4h-18.2v-1.4
		c2.3,0,3.8-0.6,4.6-1.7C284.2,260,284.6,258,284.6,255.1L284.6,255.1z M335.7,264.2v-1.4c2.9,0,4.4-1,4.4-2.9
		c0-0.6-0.1-1.2-0.4-1.9l-4.7-13.3h-16.4l-3.4,9.7c-0.9,2.4-1.3,4.2-1.3,5.3c0,2,1.3,3.1,4,3.1v1.4h-13.1v-1.4
		c1.9-0.3,3.3-0.8,4.4-1.8c1-0.9,2.1-2.8,3.2-5.8l13.9-39.7h5.3l14.7,41.5c0.9,2.4,1.8,4,2.7,4.7c0.9,0.7,2.4,1.1,4.5,1.1v1.4H335.7
		L335.7,264.2z M319.6,241.7H334l-7.2-20.4L319.6,241.7L319.6,241.7z M400.3,253.7h1.5l-3.1,10.5h-36.7v-1.4c2.1,0,3.6-0.6,4.4-1.8
		c0.9-1.2,1.3-3.3,1.3-6.2v-30.3c0-2.6-0.4-4.4-1.2-5.4c-0.8-1-2.3-1.5-4.5-1.5V216h18.2v1.4c-2,0-3.5,0.6-4.4,1.8
		c-0.9,1.2-1.3,3.1-1.3,5.8v32.1c0,1.8,0.4,3,1.2,3.7c0.8,0.7,2.3,1,4.6,1h10c3.1,0,5.3-0.5,6.5-1.5
		C398.1,259.3,399.3,257.1,400.3,253.7L400.3,253.7z"/>
</g>
</svg>
